<?xml version="1.0" encoding="UTF-8"?>
<svg id="Camada_1" data-name="Camada 1" xmlns="http://www.w3.org/2000/svg" viewBox="0 0 586.06 396.83">
  <defs>
    <style>
      .cls-1 {
        fill: #49b5ba;
      }

      .cls-2 {
        fill: #f08497;
      }

      .cls-3 {
        fill: #48b5b9;
      }
    </style>
  </defs>
  <g>
    <g>
      <path class="cls-2" d="M122.76,279.65c-5.73,14.55-21.46,68.8-35.57,69.68-20.73,1.18-18.52-37.63-14.41-75.26-9.56,.15-19.11,0-28.67,1.03-2.5,15.29-8.23,67.62-28.81,67.62-16.17,0-16.46-23.52-14.41-34.99,4.26-22.2,17.64-33.08,39.69-36.31,2.79-16.17,10.44-68.94,31.75-70.12,20.43-1.18,18.23,54.39,17.79,67.33,3.53-.74,6.32-1.91,7.94-3.82l3.23,2.65c-2.5,2.94-6.47,4.56-11.32,5.44-1.47,35.43-5.88,70.42-2.35,70.71,8.82,.73,26.75-53.8,31.31-65.42l3.82,1.47Zm-82.91-3.97c-19.55,3.23-30.87,12.79-34.69,32.49-1.62,8.53-2.65,30.58,10.29,30.43,16.32-.15,22.34-50.42,24.4-62.92Zm31.75-69.97c-15.44-.88-24.7,53.66-26.75,65.12,9.41-.88,18.96-.74,28.37-.88,.88-8.67,10.29-63.51-1.62-64.24Z"/>
      <path class="cls-2" d="M163.63,304.77c.33,11.81-6.89,35.66-21.44,35.88-3.39,.11-6.02-1.86-6.45-5.91-.88-9.41,8.09-19.03,14.77-24.61,.44-4.16,1.53-24.83-5.25-24.61-3.83,.11-9.3,7.66-14.99,22.42,.11,10.94,.55,21.77,.98,32.71h-13.46c.44-33.25-8.31-109.94,25.6-109.39,9.08,.11,12.36,6.78,11.81,14.99-.98,14.33-12.91,35-24.83,42.22-.11,3.83-.11,7.66-.11,11.49,3.61-8.09,9.3-17.72,16.3-18.27,10.5-.77,15.64,11.05,16.74,19.8,8.09-4.59,16.3-7.77,21.99-8.42l.44,3.06c-5.8,.77-14.11,3.94-22.1,8.64Zm-33.15-20.02c10.17-7.33,20.78-25.82,21.66-38.61,.44-7.33-2.95-11.71-7.11-11.6-13.89,.33-14.33,40.37-14.55,50.21Zm19.58,29.75c-5.03,4.59-11.81,12.8-11.27,20.13,.22,1.86,.98,2.84,2.08,2.95,5.8,.22,8.64-18.27,9.19-23.08Z"/>
      <path class="cls-2" d="M239.55,294.38c-4.05,11.49-14.11,35.77-23.85,44.08-4.38,3.72-12.14,2.95-14.66-2.3-4.92-10.5,1.31-23.85-10.39-35.99-5.8-6.02-15.53-7.77-15.1-18.81,.22-5.58,3.83-13.02,10.28-13.13,5.03,0,6.67,4.7,6.67,8.97-.11,3.83-1.31,8.42-2.41,11.6,3.72,1.75,6.89,2.41,10.94,4.7,21.88,12.25,4.92,42.88,10.5,42.99,7.33,.11,21.22-31.61,25.05-42.99l2.95,.88Zm-50.21-17.28c0-1.86-.44-5.8-3.17-5.69-3.72,.11-4.81,6.02-3.83,9.08,.88,2.63,3.06,5.25,5.03,6.67,.98-2.95,1.97-6.78,1.97-10.06Z"/>
      <path class="cls-2" d="M305.61,294.38c-2.08,5.91-5.36,15.42-9.41,24.39-2.95,6.56-9.63,21.88-18.38,21.88-12.25,0-15.1-14.11-14.88-29.21-4.16,13.46-10.17,28.99-17.83,29.21-20.56,.44-18.16-61.7,10.17-61.81,4.38,0,7.66,2.3,10.17,5.58,.33-2.3,.66-4.16,.77-5.58h13.13c-.98,15.1-7.66,57.43,.22,57.65,5.36,.11,12.25-15.97,13.78-19.25,4.05-8.86,7.55-18.6,9.3-23.74l2.95,.88Zm-40.91-4.48c-2.52-4.7-4.81-6.45-7-6.45-9.19,.11-14.33,51.96-9.95,51.3,2.73-.33,9.19-16.96,16.63-42.12l.33-2.73Z"/>
      <path class="cls-2" d="M344.77,294.38c-4.05,11.49-7.99,22.32-14.33,32.93-4.7,7.66-9.84,13.46-15.1,13.35-27.79-.22-19.58-63.99,4.48-61.7,10.72,.98,8.31,16.63,2.19,17.17-3.06,.33-4.59-3.94-1.09-6.02,3.06-1.86,3.72-7,.77-7.44-9.85-1.2-16.08,54.59-6.02,54.7,4.59,0,10.06-8.42,12.03-11.71,5.69-9.41,10.61-21.66,14.11-32.16l2.95,.88Z"/>
      <path class="cls-2" d="M384.37,294.38c-4.16,11.49-8.09,22.32-14.44,32.93-4.59,7.66-9.84,13.46-15.1,13.35-25.93-.22-21.99-60.93,2.62-61.7,4.81-.22,8.64,2.52,8.75,7.77,.11,5.58-4.81,12.36-14.55,13.24-.33,2.41-4.81,37.3,3.61,37.41,4.49,0,10.06-8.42,12.03-11.71,5.69-9.41,10.5-21.66,14-32.16l3.06,.88Zm-32.27,2.41c8.1-.98,11.16-6.24,10.94-9.96-.22-2.19-1.53-3.94-3.61-3.94-5.58,0-6.67,9.74-7.33,13.89Z"/>
    </g>
    <g>
      <path class="cls-2" d="M492.01,332.53c-2.17,11.77-8.39,58.06-23.95,58.19-25.17,.14-21.52-54-37.35-51.29l-.68-3.79c38.57-12.72,35.32-65.23,23.14-64.82-10.56,.27-21.79,31.67-25.17,43.58-.13,27.74,0,57.65,0,77.81h-15.83c0-28.69-.54-77.54,.41-111.65h15.83l-.41,20.3c5.82-16.38,15.7-35.86,30.72-36.4,23.55-.95,30.72,53.86-13.8,71.05,19.62,8.12,19.76,50.88,24.5,51.02,10.01,.54,17.32-46.42,18.68-54h3.92Z"/>
      <path class="cls-2" d="M586.06,332.66c-5.28,13.4-19.76,63.33-32.75,64.15-34.24,2.03,3.11-125.72-10.56-125.99-4.47,0-10.29,10.83-11.91,14.07-10.01,20.3-19.62,56.7-26.93,77.54v28.55h-15.83c0-28.69-.54-74.16,.41-108.26h15.83c-.54,20.57-.54,45.47-.54,68.21,7.71-23.14,14.75-50.34,23.55-67.39,2.98-6.09,10.29-17.59,18.27-16.78,24.77,2.3,2.44,124.37,8.12,124.77,8.12,.68,24.5-49.53,28.69-60.22l3.65,1.35Z"/>
    </g>
    <g>
      <path class="cls-1" d="M341.6,363.09c-1.37,3.89-3.53,10.15-6.19,16.06-1.94,4.32-6.34,14.4-12.1,14.4-4.82,0-7.42-3.38-8.71-8.21-2.3,4.1-5.4,8.21-9.07,8.21-14.91,0-8.64-32.26-7.63-40.68h8.71c-.72,9.94-5.11,37.8,.07,37.95,2.45,.07,5.4-4.97,7.27-8.79-1.44-10.15,1.15-24.05,1.73-29.16h8.71c-.65,9.94-5.04,37.8,.07,37.95,3.53,.07,8.06-10.51,9.07-12.67,2.66-5.83,4.97-12.24,6.12-15.63l1.94,.58Z"/>
      <path class="cls-1" d="M399.78,363.09c-1.37,3.89-3.53,10.15-6.19,16.06-1.94,4.32-6.34,14.4-12.17,14.4-15.27,0-2.59-37.37-5.26-38.16-4.54,2.16-9.65,17.79-10.94,22.18-.58,3.74-1.15,7.13-1.22,9.58h-6.77c-2.66-10.8,3.74-31.18,1.8-31.75-4.83,2.3-10.15,19.44-11.09,22.83l-.22,.65c-.07,4.9-.07,9.79,0,14.69h-8.42c-1.58-12.24-.5-28.37,.22-40.68h8.64c0,6.12-.14,12.24-.29,18.29,2.52-7.78,6.91-18.36,12.82-18.29,5.62,.07,6.55,6.26,5.98,13.61,2.67-6.77,6.41-13.61,11.16-13.61,14.04,.14-1.08,37.8,4.82,37.95,3.46,.07,8.07-10.51,9-12.67,2.66-5.83,5.04-12.24,6.19-15.63l1.94,.58Z"/>
    </g>
  </g>
  <g>
    <path class="cls-3" d="M195.96,51.48c-1.66-.67-13.3,17.43-18.26,39.21-7.6,33.38,3.51,61.88,5.81,67.52,14.07,34.4,45.7,61.42,83.09,70.13,70.97,16.53,122.36-42.28,125.12-46.73,4.1-6.61,7.37-13.87,7.37-13.87,0,0,0,0,0,0,2.35-5.06,8.41-18.87,10.89-35.03,1.06-6.92,1.1-11.86,.91-15.51-.15-2.96-.46-5.41-.72-7.11-.8-1.9-2.36-3.28-3.99-3.34-2.39-.09-5.08,2.64-4.78,6.45-1.61,13.7-6.36,35.46-21.76,56.06-3.99,5.34-8.16,9.88-12.22,13.73-.72,.88-1.98,1.11-2.93,.54-1-.59,5.65-10.83,8.31-17.81,2.21-5.82,5.24-16.15,2.64-17.49-2.84-1.46-8.35,9.94-24.96,22.52-6.39,4.84-16.89,11.65-17.43,12-2.89,1.87-5.43,3.46-7.48,4.71-1.53,.94-2.91,2.12-3.97,3.57-1.37,1.86-1.81,3.49-1.89,4.8-.17,2.7,1.16,4.87-.1,6.55-.91,1.21-2.57,1.39-3.23,1.46-53.1,5.63-85.46-18.46-85.46-18.46-33.61-24.4-47.24-64.59-44.52-95.56,1.83-20.92,11.14-37.71,9.57-38.34Z"/>
    <path class="cls-2" d="M213.64,52.45c-.37-.21-.98,.05-1.14,.24-4.63,5.56-11.33,16.69-14.06,33.54-2.42,14.94-.05,27.25,1.98,34.4,.09,.33,.58,.26,.58-.08,.03-4.36,.77-11.21,4.6-18.36,2.47-4.62,5.47-7.92,7.82-10.1-4.76-10.42-4.71-18.14-3.75-23.29,1.32-7.08,5.49-15.49,3.96-16.35Z"/>
    <path class="cls-2" d="M267.07,107.72c.04,.11,.07,.23,.09,.35,.42,2.4,.71,5.53-3.56,11.72-9.3,13.49-33.73,1.77-36.02,.81-.88-.37-1.42-1.3-1.26-2.24,.06-.33,.18-.63,.4-.87,1.32-1.42,5.13,.57,9.96,2.02,2.69,.81,6.57,1.71,11.53,2,1.27-.06,11.77-.66,15.07-7.41,.23-.47,2.66-5.44,.49-7.9-.6-.68-1.4-.99-2.04-1.14-.62,.16-1.55,.41-2.69,.73-4.61,1.31-7.06,2.28-8.14,2.61-6.15,1.83-10.29-4.76-20.85-6.52-3.92-.65-7.25-.4-9.45-.08-2.2,.39-2.48,.05-2.69-.62-.21-.7-.35-2.08,1.95-2.96,.62-.28,1.54-.64,2.69-.9,0,0,2.25-.51,4.96-.25,2.91,.28,9.67,2.61,17.96,7.19,2.76,1.02,4.97,1.07,6.4,.96,6.69-.53,11.48-5.85,16.13-11,1.81-2.01,3.17-3.8,4.07-5.05,.82-1.58,7.99-15.91,.65-31.27-7.96-16.67-25.73-19.37-27.04-19.55-1.79,.21-18.34,2.41-27.04,17.59-6.37,11.12-6.13,25,.57,36.24-3.21,4.15-9.5,13.52-10.32,26.63-1.6,25.6,19.09,42.07,21.15,43.66,17.62,16.77,38.5,17.65,46.38,9.12,6.4-6.93,3.33-20.44,2.6-23.32-.16-1.15,.08-1.79,.94-2.29,.3-.17,.59-.18,.88-.11,.71,.17,1.26,.73,1.53,1.41,1.58,3.95,3.82,8.51,7.05,13.24,1.68,2.46,3.39,4.62,5.05,6.52,1.99-.73,4.65-1.91,7.49-3.83,3.21-2.17,5.24-4.33,6.52-5.7,1.81-1.95,4.14-4.82,6.27-8.71,.21-1.27,.71-5.19-1.38-6.95-2.62-2.22-9.08-.83-14.59,5.33-1.35-1.99-3.39-5.26-5.21-9.61-2.89-6.87-2.64-10.22-5.46-14.99-1.42-2.41-3.99-5.8-8.88-8.96,15.85-14.33,31.71-28.67,47.56-43l60.27,49.52c12.98-33.47-3.46-68.66-30.52-78.42-20.35-7.34-45.32,.2-61.68,19.13-2.8-3.16-7.06-7.28-13.03-11-6.12-3.81-11.84-5.82-15.96-6.92,3.5,3.42,8.89,9.73,11.76,19.1,1.59,5.17,4.53,14.8-.11,24.72-3.13,6.68-7.78,11.88-10.48,13.57l-1.84,1.45c-.59,.26,.45,2.15,.82,3l1.04,2.98Z"/>
    <rect class="cls-3" x="318" y="109.8" width="11.62" height="11.62"/>
    <rect class="cls-3" x="333.91" y="109.8" width="11.62" height="11.62"/>
    <rect class="cls-3" x="318" y="125.6" width="11.62" height="11.62"/>
    <rect class="cls-3" x="333.91" y="125.6" width="11.62" height="11.62"/>
  </g>
</svg>